<?xml version="1.0" encoding="UTF-8"?>
<svg version="1.1" xmlns="http://www.w3.org/2000/svg" width="217" height="46">
<path d="M0 0 C0.28875 0.763125 0.5775 1.52625 0.875 2.3125 C1.96269013 5.15029308 1.96269013 5.15029308 4 8 C4.4140625 10.69921875 4.4140625 10.69921875 4.625 13.6875 C4.69976562 14.68136719 4.77453125 15.67523438 4.8515625 16.69921875 C4.90054688 17.45847656 4.94953125 18.21773437 5 19 C7.30060534 17.1371051 7.30060534 17.1371051 7.1953125 14.1796875 C7.17210937 13.08914062 7.14890625 11.99859375 7.125 10.875 C7.10695312 9.77929688 7.08890625 8.68359375 7.0703125 7.5546875 C7.04710937 6.71164063 7.02390625 5.86859375 7 5 C5.68 5 4.36 5 3 5 C3 3.35 3 1.7 3 0 C9.875 0.875 9.875 0.875 11 2 C12.43661742 16.15394662 12.43661742 16.15394662 9.4375 20.0078125 C8.16332251 20.86582718 6.87019903 21.69646317 5.55859375 22.49609375 C3.72076276 23.97072788 3.72076276 23.97072788 3.53515625 26.78515625 C3.55965769 29.55381946 3.69165025 32.24932449 4 35 C6.475 34.505 6.475 34.505 9 34 C9.03867188 32.77023438 9.03867188 32.77023438 9.078125 31.515625 C9.16320313 29.89914063 9.16320313 29.89914063 9.25 28.25 C9.29640625 27.18265625 9.3428125 26.1153125 9.390625 25.015625 C10.11653901 21.42328131 11.14939664 20.23566516 14 18 C16.9375 16.9375 16.9375 16.9375 20 17 C22.875 19.3125 22.875 19.3125 25 22 C25 22.66 25 23.32 25 24 C25.99 24.33 26.98 24.66 28 25 C28.125 27.875 28.125 27.875 28 31 C26 33 26 33 23 33.25 C20 33 20 33 18 31 C17.61713197 27.26703674 17.85084215 26.22373677 20 23 C18.05396726 22.40929986 18.05396726 22.40929986 16 22 C13.83301761 24.16698239 14.67788201 29.08478864 14.57421875 32.01953125 C13.88234141 35.61070411 12.88731715 36.81248144 10 39 C6.5 39.5625 6.5 39.5625 3 39 C-0.73239696 35.66048693 -1.3192674 32.81851897 -2 28 C-2.80824219 28.67289063 -3.61648437 29.34578125 -4.44921875 30.0390625 C-5.52788406 30.90199475 -6.6073538 31.76392214 -7.6875 32.625 C-8.21794922 33.07101563 -8.74839844 33.51703125 -9.29492188 33.9765625 C-10.88671875 35.2265625 -10.88671875 35.2265625 -14 37 C-18.25873142 36.24504307 -20.93843481 33.56048113 -24.0625 30.6875 C-24.89910156 29.92824219 -25.73570313 29.16898438 -26.59765625 28.38671875 C-31.33330978 23.68186622 -34.13867508 20.40458127 -34.375 13.6875 C-34.35279625 9.45213536 -34.27605201 8.36322633 -31.625 4.875 C-28.1405201 2.38608578 -26.8089493 1.84684451 -22.625 2.3125 C-21.46871094 2.43044922 -21.46871094 2.43044922 -20.2890625 2.55078125 C-18 3 -18 3 -16.0234375 4.19140625 C-13.93870534 5.28626669 -13.93870534 5.28626669 -11.5625 4.1015625 C-10.716875 3.61429687 -9.87125 3.12703125 -9 2.625 C-5.4507646 0.60150299 -4.2274369 0 0 0 Z M21 26 C21.33 27.65 21.66 29.3 22 31 C23.32 30.34 24.64 29.68 26 29 C25.67 28.01 25.34 27.02 25 26 C23.68 26 22.36 26 21 26 Z " fill="#879EDA" transform="translate(37,4)"/>
<path d="M0 0 C3.1875 0.375 3.1875 0.375 5.5625 2.75 C7.1875 5.375 7.1875 5.375 7.1875 7.375 C7.8475 7.375 8.5075 7.375 9.1875 7.375 C9.47625 6.59125 9.765 5.8075 10.0625 5 C11.1875 2.375 11.1875 2.375 13.1875 0.375 C16.25 0.1875 16.25 0.1875 19.1875 0.375 C20.84126711 2.02876711 20.82221208 4.18448364 21.25 6.4375 C21.42660156 7.35660156 21.60320312 8.27570312 21.78515625 9.22265625 C21.98431641 10.28806641 21.98431641 10.28806641 22.1875 11.375 C23.2084375 10.1375 23.2084375 10.1375 24.25 8.875 C27.1875 6.375 27.1875 6.375 30.8125 5.9375 C34.1875 6.375 34.1875 6.375 37.1875 8.375 C37.6875 11.8125 37.6875 11.8125 37.1875 15.375 C34.12999087 17.99572211 31.12979943 18.81181437 27.1875 19.375 C27.6825 20.365 27.6825 20.365 28.1875 21.375 C32.44481568 21.78249675 32.44481568 21.78249675 36.0625 19.875 C36.43375 19.38 36.805 18.885 37.1875 18.375 C37.54305556 23.70833333 37.54305556 23.70833333 36.1875 26.25 C32.97808479 28.05529606 29.72116123 28.03756148 26.1875 27.375 C23.75630377 25.50484906 22.54680827 24.09361655 21.1875 21.375 C20.8575 23.355 20.5275 25.335 20.1875 27.375 C17.8775 27.375 15.5675 27.375 13.1875 27.375 C13.5175 21.435 13.8475 15.495 14.1875 9.375 C12.47548691 13.36969722 10.77854798 17.33618589 9.1875 21.375 C8.1975 21.375 7.2075 21.375 6.1875 21.375 C4.5375 17.415 2.8875 13.455 1.1875 9.375 C1.5175 15.315 1.8475 21.255 2.1875 27.375 C0.2075 27.375 -1.7725 27.375 -3.8125 27.375 C-5.77694406 18.97154483 -5.27755472 9.83976059 -3.8125 1.375 C-2.8125 0.375 -2.8125 0.375 0 0 Z M29.1875 10.375 C28.5275 11.695 27.8675 13.015 27.1875 14.375 C28.8375 14.045 30.4875 13.715 32.1875 13.375 C31.8575 12.385 31.5275 11.395 31.1875 10.375 C30.5275 10.375 29.8675 10.375 29.1875 10.375 Z " fill="#43BD7A" transform="translate(79.8125,8.625)"/>
<path d="M0 0 C2.31 0 4.62 0 7 0 C6.34 3.3 5.68 6.6 5 10 C8.465 9.505 8.465 9.505 12 9 C11.34 6.03 10.68 3.06 10 0 C11.98 0 13.96 0 16 0 C18.40929552 5.63433678 18.23079831 10.8689111 18.125 16.875 C18.11597656 17.84953125 18.10695312 18.8240625 18.09765625 19.828125 C18.07421623 22.21900728 18.04140442 24.60937261 18 27 C15.69 27 13.38 27 11 27 C11.66 23.04 12.32 19.08 13 15 C10.36 15.33 7.72 15.66 5 16 C5.33 19.63 5.66 23.26 6 27 C3.69 27 1.38 27 -1 27 C-2.94977657 19.44461581 -3.5196132 7.0392264 0 0 Z " fill="#43BD7A" transform="translate(147,9)"/>
<path d="M0 0 C1.15628906 0.11794922 1.15628906 0.11794922 2.3359375 0.23828125 C4.625 0.6875 4.625 0.6875 6.75 1.81640625 C7.36875 2.10386719 7.9875 2.39132813 8.625 2.6875 C11.26725405 1.36884288 11.26725405 1.36884288 13.625 -0.3125 C14.285 -0.3125 14.945 -0.3125 15.625 -0.3125 C15.625 4.9675 15.625 10.2475 15.625 15.6875 C13.315 16.0175 11.005 16.3475 8.625 16.6875 C8.295 15.6975 7.965 14.7075 7.625 13.6875 C6.635 13.6875 5.645 13.6875 4.625 13.6875 C3.965 11.7075 3.305 9.7275 2.625 7.6875 C2.295 10.6575 1.965 13.6275 1.625 16.6875 C0.635 16.0275 -0.355 15.3675 -1.375 14.6875 C-1.705 15.0175 -2.035 15.3475 -2.375 15.6875 C-5.04558851 15.82865161 -7.69932238 15.72997107 -10.375 15.6875 C-11.98347182 12.47055636 -11.98809149 9.16612778 -11.375 5.6875 C-7.8197444 1.29021018 -5.58242197 -0.62129946 0 0 Z " fill="#F51B4F" transform="translate(14.375,6.3125)"/>
<path d="M0 0 C0.45375 0.66 0.9075 1.32 1.375 2 C1.91125 2.66 2.4475 3.32 3 4 C3.66 4 4.32 4 5 4 C5 4.66 5 5.32 5 6 C5.99 5.67 6.98 5.34 8 5 C14.2601626 4.54471545 14.2601626 4.54471545 17.4375 6.5 C17.953125 6.995 18.46875 7.49 19 8 C17.72906984 13.17290871 15.9783734 15.38781036 11.6875 18.5 C10.74261719 19.2115625 9.79773438 19.923125 8.82421875 20.65625 C6 22 6 22 3.46875 21.484375 C0.64902549 19.78897102 -1.72794029 17.93792906 -4.1875 15.75 C-5.04730469 15.00234375 -5.90710938 14.2546875 -6.79296875 13.484375 C-9.22923435 10.74195921 -10.08889614 8.52225625 -11 5 C-7.535 4.505 -7.535 4.505 -4 4 C-3.34 5.32 -2.68 6.64 -2 8 C-0.03177114 6.03177114 -0.33751619 2.65191291 0 0 Z " fill="#F90C45" transform="translate(17,19)"/>
<path d="M0 0 C1.66611905 -0.042721 3.33382885 -0.04063832 5 0 C6 1 6 1 6.11352539 3.59204102 C6.10828857 4.71795654 6.10305176 5.84387207 6.09765625 7.00390625 C6.09443359 8.21884766 6.09121094 9.43378906 6.08789062 10.68554688 C6.07951172 11.96494141 6.07113281 13.24433594 6.0625 14.5625 C6.05798828 15.84576172 6.05347656 17.12902344 6.04882812 18.45117188 C6.03699545 21.63416022 6.02051068 24.81705762 6 28 C4.06318839 28.08107583 2.1254066 28.13922475 0.1875 28.1875 C-0.89144531 28.22230469 -1.97039062 28.25710937 -3.08203125 28.29296875 C-6 28 -6 28 -7.84814453 26.61425781 C-10.10437058 23.45228948 -10.11930882 19.78648513 -10 16 C-9.06110095 12.41327055 -7.64906121 9.64906121 -5 7 C-1.875 6.875 -1.875 6.875 1 7 C0.67 4.69 0.34 2.38 0 0 Z M-1 10 C-3.37339853 11.85744232 -3.9940468 12.97847688 -4.8125 15.9375 C-5.00613718 19.10024068 -4.70401547 20.39385869 -3 23 C-1.68 22.67 -0.36 22.34 1 22 C1 18.37 1 14.74 1 11 C0.34 10.67 -0.32 10.34 -1 10 Z " fill="#43BD7A" transform="translate(128,8)"/>
<path d="M0 0 C1.65 0 3.3 0 5 0 C6.33332095 2.6666419 5.67102033 4.16680303 5 7 C5.928125 6.938125 6.85625 6.87625 7.8125 6.8125 C11 7 11 7 12.64453125 8.24609375 C15.10646534 11.43170876 15.12363056 15.07635641 15 19 C14.06110095 22.58672945 12.64906121 25.35093879 10 28 C7.6171875 28.1953125 7.6171875 28.1953125 4.875 28.125 C3.50988281 28.09792969 3.50988281 28.09792969 2.1171875 28.0703125 C1.41851562 28.04710938 0.71984375 28.02390625 0 28 C-1.25492025 24.13564241 -1.15098371 20.2663396 -1.125 16.25 C-1.12306641 15.53714844 -1.12113281 14.82429688 -1.11914062 14.08984375 C-1.07978715 9.30621013 -0.78565661 4.71393969 0 0 Z M6 10 C3.76448241 13.35327639 3.82716472 13.90743657 4.375 17.6875 C4.48585937 18.49574219 4.59671875 19.30398437 4.7109375 20.13671875 C4.80632812 20.75160156 4.90171875 21.36648437 5 22 C6.32 21.67 7.64 21.34 9 21 C9.93750716 17.33519927 10.28668844 15.59943946 8.625 12.125 C7.820625 11.073125 7.820625 11.073125 7 10 C6.67 10 6.34 10 6 10 Z " fill="#43BD7A" transform="translate(186,8)"/>
<path d="M0 0 C1.98 0 3.96 0 6 0 C5.90460938 0.90363281 5.80921875 1.80726562 5.7109375 2.73828125 C5.60007813 3.91777344 5.48921875 5.09726562 5.375 6.3125 C5.25898438 7.48425781 5.14296875 8.65601563 5.0234375 9.86328125 C4.70551218 13.16591167 4.70551218 13.16591167 7 16 C9.14336161 12.5233662 9.21277626 9.78770805 9.125 5.75 C9.09792969 4.13351563 9.09792969 4.13351563 9.0703125 2.484375 C9.04710937 1.66453125 9.02390625 0.8446875 9 0 C10.65 0 12.3 0 14 0 C14.81243525 3.55924014 15.13524922 6.85127695 15.125 10.5 C15.12886719 11.87671875 15.12886719 11.87671875 15.1328125 13.28125 C15.00244035 15.95004454 14.59378606 18.39865153 14 21 C12.04196493 21.05389087 10.08351091 21.09274217 8.125 21.125 C7.03445312 21.14820312 5.94390625 21.17140625 4.8203125 21.1953125 C2 21 2 21 0 19 C-1.25651744 14.82414864 -0.92499378 10.99714825 -0.5625 6.6875 C-0.46066406 5.43324219 -0.35882813 4.17898437 -0.25390625 2.88671875 C-0.17011719 1.93410156 -0.08632812 0.98148438 0 0 Z " fill="#43BD7A" transform="translate(169,15)"/>
<path d="M0 0 C1.48199902 0.44909061 2.96055236 0.90956564 4.4375 1.375 C5.26121094 1.63023438 6.08492187 1.88546875 6.93359375 2.1484375 C9 3 9 3 10 5 C10.09472912 6.51845202 10.1298841 8.04110384 10.125 9.5625 C10.12757812 10.36816406 10.13015625 11.17382812 10.1328125 12.00390625 C10 14 10 14 9 15 C6.32941149 15.14115161 3.67567762 15.04247107 1 15 C-0.44207941 12.11584117 -0.09394887 9.58278472 -0.0625 6.375 C-0.05347656 5.18648437 -0.04445313 3.99796875 -0.03515625 2.7734375 C-0.02355469 1.85820312 -0.01195313 0.94296875 0 0 Z " fill="#FC023D" transform="translate(31,7)"/>
<path d="M0 0 C1.65 0 3.3 0 5 0 C4.98839844 0.67804687 4.97679687 1.35609375 4.96484375 2.0546875 C4.90291649 8.44204207 5.22981132 14.65969676 6 21 C4.02 21 2.04 21 0 21 C-1.57152719 17.85694562 -1.14318589 14.508726 -1.125 11.0625 C-1.12886719 10.33353516 -1.13273438 9.60457031 -1.13671875 8.85351562 C-1.1308304 5.64142264 -1.02261853 3.0678556 0 0 Z " fill="#43BD7A" transform="translate(137,15)"/>
<path d="M0 0 C0.66 0.66 1.32 1.32 2 2 C2.99 1.34 3.98 0.68 5 0 C5.33 3.96 5.66 7.92 6 12 C3.69 12.33 1.38 12.66 -1 13 C-1.33 12.01 -1.66 11.02 -2 10 C-2.99 10 -3.98 10 -5 10 C-5.125 4.25 -5.125 4.25 -4 2 C-1.9375 0.875 -1.9375 0.875 0 0 Z " fill="#FB0640" transform="translate(24,10)"/>
<path d="M0 0 C0.45375 0.66 0.9075 1.32 1.375 2 C1.91125 2.66 2.4475 3.32 3 4 C3.66 4 4.32 4 5 4 C5 4.66 5 5.32 5 6 C5.66 6.33 6.32 6.66 7 7 C4.525 6.505 4.525 6.505 2 6 C0.24502532 10.93086763 0.24502532 10.93086763 -1 16 C-0.67 16.66 -0.34 17.32 0 18 C-4.1736556 16.39474785 -7.26141941 13.46773828 -10 10 C-10.875 7.125 -10.875 7.125 -11 5 C-7.535 4.505 -7.535 4.505 -4 4 C-3.34 5.32 -2.68 6.64 -2 8 C-0.03177114 6.03177114 -0.33751619 2.65191291 0 0 Z " fill="#EF2253" transform="translate(17,19)"/>
<path d="M0 0 C2 2 2 2 2.125 4.625 C2.08375 5.40875 2.0425 6.1925 2 7 C2.99 7 3.98 7 5 7 C5.33 7.66 5.66 8.32 6 9 C8.64 9 11.28 9 14 9 C14.33 9.66 14.66 10.32 15 11 C11.7 11.33 8.4 11.66 5 12 C5 11.34 5 10.68 5 10 C4.01 10.33 3.02 10.66 2 11 C1.67 10.67 1.34 10.34 1 10 C0.34 11.98 -0.32 13.96 -1 16 C-1.53625 15.175 -2.0725 14.35 -2.625 13.5 C-4.80271869 10.66048792 -4.80271869 10.66048792 -8.25 10.6875 C-9.1575 10.790625 -10.065 10.89375 -11 11 C-10.67 12.32 -10.34 13.64 -10 15 C-12.89932357 12.60490662 -13.50168276 10.68754757 -14 7 C-13.67 7.66 -13.34 8.32 -13 9 C-7.8306511 8.59443869 -7.8306511 8.59443869 -3 7 C-2.67 7.66 -2.34 8.32 -2 9 C-1.855625 7.700625 -1.71125 6.40125 -1.5625 5.0625 C-1.125 1.125 -1.125 1.125 0 0 Z " fill="#F3BFCB" transform="translate(17,13)"/>
<path d="M0 0 C0.66 1.98 1.32 3.96 2 6 C-3.75 4.125 -3.75 4.125 -6 3 C-5.88590318 5.10478604 -5.75834639 7.20884577 -5.625 9.3125 C-5.55539063 10.48425781 -5.48578125 11.65601563 -5.4140625 12.86328125 C-5.21386253 16.15699887 -5.21386253 16.15699887 -3 19 C0.08365871 19.2502157 0.08365871 19.2502157 3 19 C3 19.66 3 20.32 3 21 C3.66 21.33 4.32 21.66 5 22 C3.68 23.32 2.36 24.64 1 26 C-6.79320057 19.73155606 -6.79320057 19.73155606 -7.22705078 16.09887695 C-7.21657715 15.40238037 -7.20610352 14.70588379 -7.1953125 13.98828125 C-7.18886719 13.23095703 -7.18242187 12.47363281 -7.17578125 11.69335938 C-7.15902344 10.90767578 -7.14226563 10.12199219 -7.125 9.3125 C-7.11597656 8.51521484 -7.10695313 7.71792969 -7.09765625 6.89648438 C-7.07411585 4.930861 -7.03824547 2.96539225 -7 1 C-4 0 -4 0 0 0 Z " fill="#6983D0" transform="translate(37,4)"/>
<path d="M0 0 C1.5 1.375 1.5 1.375 3 3 C3 3.66 3 4.32 3 5 C3.99 5.33 4.98 5.66 6 6 C6.125 8.875 6.125 8.875 6 12 C4 14 4 14 1 14.25 C-2 14 -2 14 -4 12 C-4.38286803 8.26703674 -4.14915785 7.22373677 -2 4 C-2.33 3.34 -2.66 2.68 -3 2 C-2.01 2 -1.02 2 0 2 C0 1.34 0 0.68 0 0 Z M-1 7 C-0.67 8.65 -0.34 10.3 0 12 C1.32 11.34 2.64 10.68 4 10 C3.67 9.01 3.34 8.02 3 7 C1.68 7 0.36 7 -1 7 Z " fill="#7094DD" transform="translate(59,23)"/>
<path d="M0 0 C0.33 1.65 0.66 3.3 1 5 C-0.093125 4.814375 -1.18625 4.62875 -2.3125 4.4375 C-5.93624133 3.7421932 -5.93624133 3.7421932 -9 5 C-9 7.97 -9 10.94 -9 14 C-9.99 14.495 -9.99 14.495 -11 15 C-11.13496251 12.89758397 -11.23197307 10.7927039 -11.3125 8.6875 C-11.37050781 7.51574219 -11.42851563 6.34398437 -11.48828125 5.13671875 C-11 2 -11 2 -8.6875 0.0625 C-5.37609399 -1.24666051 -3.40433172 -0.87087556 0 0 Z " fill="#648BD9" transform="translate(59,22)"/>
<path d="M0 0 C0.66 0 1.32 0 2 0 C1.67 1.32 1.34 2.64 1 4 C2.32 4.33 3.64 4.66 5 5 C5.93423645 8.01031744 6.04449911 8.86650268 5 12 C2.69 12 0.38 12 -2 12 C-1.44687265 7.97007218 -0.8441938 3.97977076 0 0 Z " fill="#FB023D" transform="translate(6,10)"/>
<path d="M0 0 C6.93359375 2.1484375 6.93359375 2.1484375 9 3 C10.20272819 5.40545638 10.10071472 6.94996953 10.0625 9.625 C10.05347656 10.44226562 10.04445313 11.25953125 10.03515625 12.1015625 C10.02355469 12.72804688 10.01195312 13.35453125 10 14 C9.67 14 9.34 14 9 14 C8.67 11.69 8.34 9.38 8 7 C7.01 6.67 6.02 6.34 5 6 C5 5.01 5 4.02 5 3 C3.68 3 2.36 3 1 3 C1 6.3 1 9.6 1 13 C0.67 13 0.34 13 0 13 C0 8.71 0 4.42 0 0 Z " fill="#E52B61" transform="translate(31,7)"/>
<path d="M0 0 C0 4.62 0 9.24 0 14 C-0.33 14 -0.66 14 -1 14 C-1.33 11.03 -1.66 8.06 -2 5 C-2.99 5.66 -3.98 6.32 -5 7 C-5.33 6.34 -5.66 5.68 -6 5 C-7.32 5 -8.64 5 -10 5 C-8.60203108 2.20406217 -6.86525011 2.04826223 -4 1 C-2 0 -2 0 0 0 Z " fill="#D5537F" transform="translate(30,6)"/>
<path d="M0 0 C0.37125 0.495 0.7425 0.99 1.125 1.5 C3.74694393 3.59755514 5.73842472 3.21743835 9 3 C9 3.66 9 4.32 9 5 C9.66 5.33 10.32 5.66 11 6 C9.68 7.32 8.36 8.64 7 10 C0.42857143 4.85714286 0.42857143 4.85714286 -1 1 C-0.67 0.67 -0.34 0.34 0 0 Z " fill="#5975CD" transform="translate(31,20)"/>
<path d="M0 0 C2.31 0.33 4.62 0.66 7 1 C7 6.28 7 11.56 7 17 C6.67 17 6.34 17 6 17 C6 12.38 6 7.76 6 3 C5.34 3 4.68 3 4 3 C4 3.66 4 4.32 4 5 C2.68 5 1.36 5 0 5 C0 3.35 0 1.7 0 0 Z " fill="#688DD9" transform="translate(40,4)"/>
<path d="M0 0 C0.33 0 0.66 0 1 0 C1.33 3.3 1.66 6.6 2 10 C2.33 7.03 2.66 4.06 3 1 C3.33 1 3.66 1 4 1 C4.05406122 2.93719378 4.09282025 4.87481921 4.125 6.8125 C4.14820313 7.89144531 4.17140625 8.97039063 4.1953125 10.08203125 C4 13 4 13 2 16 C1.34 15.67 0.68 15.34 0 15 C0.33 14.67 0.66 14.34 1 14 C0.34 13.34 -0.32 12.68 -1 12 C-0.9765625 9.1796875 -0.9765625 9.1796875 -0.625 5.875 C-0.51414063 4.77929688 -0.40328125 3.68359375 -0.2890625 2.5546875 C-0.14597656 1.29011719 -0.14597656 1.29011719 0 0 Z " fill="#8CAAE1" transform="translate(47,26)"/>
<path d="M0 0 C1.8871875 0.0309375 1.8871875 0.0309375 3.8125 0.0625 C3.1525 1.3825 2.4925 2.7025 1.8125 4.0625 C-1.5625 4.25 -1.5625 4.25 -5.1875 4.0625 C-5.8475 3.0725 -6.5075 2.0825 -7.1875 1.0625 C-4.43671116 0.14557039 -2.82801087 -0.04636083 0 0 Z " fill="#648AD9" transform="translate(45.1875,38.9375)"/>
<path d="M0 0 C0.45375 0.66 0.9075 1.32 1.375 2 C1.91125 2.66 2.4475 3.32 3 4 C3.66 4 4.32 4 5 4 C5 4.66 5 5.32 5 6 C5.66 6.33 6.32 6.66 7 7 C5.35 6.67 3.7 6.34 2 6 C1.34 7.98 0.68 9.96 0 12 C-0.99 12 -1.98 12 -3 12 C-2.125 8.125 -2.125 8.125 -1 7 C-0.63239269 4.67182036 -0.29758419 2.3381615 0 0 Z " fill="#F8295E" transform="translate(17,19)"/>
<path d="M0 0 C0.33 0.66 0.66 1.32 1 2 C3.64 2 6.28 2 9 2 C9 2.66 9 3.32 9 4 C7.02 4 5.04 4 3 4 C3.33 5.32 3.66 6.64 4 8 C1.10067643 5.60490662 0.49831724 3.68754757 0 0 Z " fill="#DFAFB8" transform="translate(3,20)"/>
<path d="M0 0 C0.66 0 1.32 0 2 0 C1.88648483 1.81325551 1.75887039 3.62563357 1.625 5.4375 C1.55539063 6.44683594 1.48578125 7.45617188 1.4140625 8.49609375 C1.27742188 9.32238281 1.14078125 10.14867187 1 11 C0.01 11.495 0.01 11.495 -1 12 C-1.02687279 10.18757948 -1.04633715 8.37504767 -1.0625 6.5625 C-1.07410156 5.55316406 -1.08570313 4.54382813 -1.09765625 3.50390625 C-1 1 -1 1 0 0 Z " fill="#4875D5" transform="translate(49,25)"/>
<path d="M0 0 C1.98 0.495 1.98 0.495 4 1 C4 2.32 4 3.64 4 5 C2.35 5 0.7 5 -1 5 C-0.67 3.35 -0.34 1.7 0 0 Z " fill="#43BD7A" transform="translate(138,8)"/>
<path d="M0 0 C0.66 0.33 1.32 0.66 2 1 C1.01 4.3 0.02 7.6 -1 11 C-1.33 11 -1.66 11 -2 11 C-2.25 3.375 -2.25 3.375 0 0 Z " fill="#E04E71" transform="translate(5,9)"/>
<path d="M0 0 C0.99 0.33 1.98 0.66 3 1 C3.144375 1.639375 3.28875 2.27875 3.4375 2.9375 C3.80104993 5.20311706 3.80104993 5.20311706 6.0625 6.25 C6.701875 6.4975 7.34125 6.745 8 7 C5.125 7.125 5.125 7.125 2 7 C0 5 0 5 -0.125 2.375 C-0.08375 1.59125 -0.0425 0.8075 0 0 Z " fill="#8EAAE4" transform="translate(55,30)"/>
<path d="M0 0 C2.97 0.33 5.94 0.66 9 1 C7.515 2.485 7.515 2.485 6 4 C1.125 2.25 1.125 2.25 0 0 Z " fill="#D8708C" transform="translate(17,37)"/>
<path d="M0 0 C1.32 0 2.64 0 4 0 C4 1.65 4 3.3 4 5 C2.68 4.34 1.36 3.68 0 3 C0 2.01 0 1.02 0 0 Z " fill="#FA033C" transform="translate(15,32)"/>
</svg>
